<svg width="18" height="19" viewBox="0 0 18 19" fill="none" xmlns="http://www.w3.org/2000/svg">
<path d="M14.25 3.5H3.75C3.15326 3.5 2.58097 3.73705 2.15901 4.15901C1.73705 4.58097 1.5 5.15326 1.5 5.75V13.25C1.5 13.8467 1.73705 14.419 2.15901 14.841C2.58097 15.2629 3.15326 15.5 3.75 15.5H14.25C14.8467 15.5 15.419 15.2629 15.841 14.841C16.2629 14.419 16.5 13.8467 16.5 13.25V5.75C16.5 5.15326 16.2629 4.58097 15.841 4.15901C15.419 3.73705 14.8467 3.5 14.25 3.5ZM3.75 5H14.25C14.4489 5 14.6397 5.07902 14.7803 5.21967C14.921 5.36032 15 5.55109 15 5.75L9 9.41L3 5.75C3 5.55109 3.07902 5.36032 3.21967 5.21967C3.36032 5.07902 3.55109 5 3.75 5ZM15 13.25C15 13.4489 14.921 13.6397 14.7803 13.7803C14.6397 13.921 14.4489 14 14.25 14H3.75C3.55109 14 3.36032 13.921 3.21967 13.7803C3.07902 13.6397 3 13.4489 3 13.25V7.46L8.61 10.8875C8.72401 10.9533 8.85335 10.988 8.985 10.988C9.11665 10.988 9.24599 10.9533 9.36 10.8875L15 7.46V13.25Z" fill="#202127"/>
</svg>
