<svg width="14" height="14" viewBox="0 0 14 14" fill="none" xmlns="http://www.w3.org/2000/svg">
<path d="M5.00021 0.231111C5.08156 0.329959 5.13139 0.45093 5.14328 0.578395C5.15516 0.705859 5.12855 0.833958 5.06688 0.946141C4.58507 1.83074 4.33346 2.8223 4.33518 3.82959C4.33518 7.18057 7.06696 9.89401 10.4338 9.89401C10.873 9.89401 11.3005 9.84818 11.7113 9.76068C11.8373 9.7334 11.9685 9.74383 12.0885 9.79067C12.2086 9.8375 12.3122 9.91866 12.3864 10.024C12.4647 10.1336 12.5046 10.2659 12.4999 10.4005C12.4953 10.5351 12.4463 10.6644 12.3605 10.7682C11.7069 11.5711 10.8823 12.218 9.94695 12.6618C9.01156 13.1055 7.98893 13.335 6.95363 13.3333C3.1118 13.3333 0 10.2382 0 6.4247C0 3.55458 1.76174 1.09281 4.27018 0.049437C4.39513 -0.00337198 4.53385 -0.0142108 4.66549 0.0185488C4.79713 0.0513083 4.91458 0.125897 5.00021 0.231111Z" fill="#90939E"/>
<path d="M8.99565 2.62317C9.0076 2.58708 9.03062 2.55568 9.06144 2.53342C9.09226 2.51116 9.12931 2.49918 9.16733 2.49918C9.20534 2.49918 9.24239 2.51116 9.27321 2.53342C9.30403 2.55568 9.32705 2.58708 9.339 2.62317L9.66151 3.59155C9.80569 4.02323 10.144 4.36158 10.5757 4.50575L11.5441 4.82827C11.5802 4.84022 11.6116 4.86324 11.6338 4.89406C11.6561 4.92487 11.6681 4.96192 11.6681 4.99994C11.6681 5.03796 11.6561 5.07501 11.6338 5.10583C11.6116 5.13664 11.5802 5.15966 11.5441 5.17161L10.5757 5.49413C10.3628 5.56506 10.1694 5.68461 10.0107 5.84329C9.85199 6.00197 9.73245 6.19543 9.66151 6.40833L9.339 7.37671C9.32705 7.4128 9.30403 7.4442 9.27321 7.46646C9.24239 7.48872 9.20534 7.5007 9.16733 7.5007C9.12931 7.5007 9.09226 7.48872 9.06144 7.46646C9.03062 7.4442 9.0076 7.4128 8.99565 7.37671L8.67314 6.40833C8.6022 6.19543 8.48266 6.00197 8.32398 5.84329C8.1653 5.68461 7.97184 5.56506 7.75893 5.49413L6.79056 5.17161C6.75447 5.15966 6.72306 5.13664 6.70081 5.10583C6.67855 5.07501 6.66656 5.03796 6.66656 4.99994C6.66656 4.96192 6.67855 4.92487 6.70081 4.89406C6.72306 4.86324 6.75447 4.84022 6.79056 4.82827L7.75893 4.50575C7.97184 4.43482 8.1653 4.31527 8.32398 4.15659C8.48266 3.99791 8.6022 3.80445 8.67314 3.59155L8.99565 2.62317ZM11.5533 0.0822322C11.5615 0.0585031 11.5769 0.0379269 11.5974 0.0233644C11.6178 0.00880182 11.6423 0.000976562 11.6674 0.000976562C11.6925 0.000976563 11.717 0.00880182 11.7375 0.0233644C11.758 0.0379269 11.7734 0.0585031 11.7816 0.0822322L11.9966 0.72726C12.0924 1.0156 12.3183 1.24145 12.6066 1.33729L13.2517 1.55229C13.2754 1.56052 13.296 1.57594 13.3105 1.5964C13.3251 1.61686 13.3329 1.64135 13.3329 1.66647C13.3329 1.69158 13.3251 1.71607 13.3105 1.73653C13.296 1.75699 13.2754 1.77241 13.2517 1.78064L12.6066 1.99565C12.4645 2.04292 12.3354 2.12267 12.2295 2.22856C12.1236 2.33445 12.0439 2.46357 11.9966 2.60567L11.7816 3.2507C11.7734 3.27443 11.758 3.29501 11.7375 3.30957C11.717 3.32413 11.6925 3.33196 11.6674 3.33196C11.6423 3.33196 11.6178 3.32413 11.5974 3.30957C11.5769 3.29501 11.5615 3.27443 11.5533 3.2507L11.3383 2.60567C11.291 2.46357 11.2112 2.33445 11.1053 2.22856C10.9994 2.12267 10.8703 2.04292 10.7282 1.99565L10.0832 1.78064C10.0595 1.77241 10.0389 1.75699 10.0243 1.73653C10.0098 1.71607 10.0019 1.69158 10.0019 1.66647C10.0019 1.64135 10.0098 1.61686 10.0243 1.5964C10.0389 1.57594 10.0595 1.56052 10.0832 1.55229L10.7282 1.33729C11.0166 1.24145 11.2424 1.0156 11.3383 0.72726L11.5533 0.0830656V0.0822322Z" fill="#8B8B8B" fill-opacity="0.6"/>
</svg>
